<svg xmlns="http://www.w3.org/2000/svg" xmlns:xlink="http://www.w3.org/1999/xlink" width="500" zoomAndPan="magnify" viewBox="0 0 375 225" height="300" preserveAspectRatio="xMidYMid meet" version="1.0"><defs><g/><clipPath id="691a8fa4b2"><path d="M 103.789062 63.21875 L 257.480469 63.21875 L 257.480469 151.015625 L 103.789062 151.015625 Z M 103.789062 63.21875 " clip-rule="nonzero"/></clipPath><clipPath id="7c24bad329"><path d="M 160 16.015625 L 201 16.015625 L 201 56 L 160 56 Z M 160 16.015625 " clip-rule="nonzero"/></clipPath></defs><rect x="-37.5" width="450" fill="#ffffff" y="-22.5" height="270" fill-opacity="1"/><rect x="-37.5" width="450" fill="#ffffff" y="-22.5" height="270" fill-opacity="1"/><g clip-path="url(#691a8fa4b2)"><path fill="#ffffff" d="M 153.113281 87.253906 C 153.070312 87.808594 153.046875 88.367188 153.046875 88.933594 L 153.046875 126.066406 C 153.046875 130.457031 156.621094 134.027344 161.011719 134.027344 C 165.402344 134.027344 168.972656 130.457031 168.972656 126.066406 L 168.972656 104.15625 C 168.972656 95.179688 161.953125 87.8125 153.113281 87.253906 Z M 208.304688 87.253906 C 199.464844 87.8125 192.445312 95.179688 192.445312 104.15625 L 192.445312 126.066406 C 192.445312 130.457031 196.015625 134.027344 200.40625 134.027344 C 204.800781 134.027344 208.371094 130.457031 208.371094 126.066406 L 208.371094 88.933594 C 208.371094 88.367188 208.347656 87.808594 208.304688 87.253906 Z M 255.105469 151.109375 C 253.710938 151.109375 252.582031 149.980469 252.582031 148.585938 L 252.582031 104.15625 C 252.582031 94.816406 244.984375 87.21875 235.648438 87.21875 L 213.359375 87.21875 C 213.398438 87.785156 213.417969 88.359375 213.417969 88.933594 L 213.417969 126.066406 C 213.417969 133.238281 207.582031 139.074219 200.40625 139.074219 C 193.234375 139.074219 187.398438 133.238281 187.398438 126.066406 L 187.398438 104.15625 C 187.398438 98.285156 189.6875 92.765625 193.835938 88.613281 C 197.488281 84.960938 202.195312 82.753906 207.269531 82.273438 C 204.492188 74.144531 196.78125 68.285156 187.726562 68.285156 L 173.695312 68.285156 C 164.636719 68.285156 156.925781 74.144531 154.148438 82.273438 C 159.222656 82.753906 163.929688 84.960938 167.582031 88.613281 C 171.734375 92.765625 174.019531 98.285156 174.019531 104.15625 L 174.019531 126.066406 C 174.019531 133.238281 168.183594 139.074219 161.011719 139.074219 C 153.835938 139.074219 148.003906 133.238281 148.003906 126.066406 L 148.003906 88.933594 C 148.003906 88.359375 148.019531 87.785156 148.058594 87.21875 L 125.769531 87.21875 C 116.433594 87.21875 108.835938 94.816406 108.835938 104.15625 L 108.835938 148.585938 C 108.835938 149.980469 107.707031 151.109375 106.3125 151.109375 C 104.921875 151.109375 103.789062 149.980469 103.789062 148.585938 L 103.789062 104.15625 C 103.789062 98.285156 106.078125 92.765625 110.230469 88.613281 C 114.378906 84.460938 119.898438 82.175781 125.769531 82.175781 L 148.894531 82.175781 C 150.054688 77.898438 152.3125 73.980469 155.527344 70.765625 C 160.378906 65.914062 166.832031 63.242188 173.695312 63.242188 L 187.726562 63.242188 C 194.585938 63.242188 201.039062 65.914062 205.890625 70.765625 C 209.109375 73.980469 211.363281 77.898438 212.523438 82.175781 L 235.648438 82.175781 C 241.519531 82.175781 247.039062 84.460938 251.191406 88.613281 C 255.34375 92.765625 257.628906 98.285156 257.628906 104.15625 L 257.628906 148.585938 C 257.628906 149.980469 256.496094 151.109375 255.105469 151.109375 " fill-opacity="1" fill-rule="nonzero"/></g><g clip-path="url(#7c24bad329)"><path fill="#ffffff" d="M 180.710938 21.058594 C 172.59375 21.058594 165.996094 27.660156 165.996094 35.773438 C 165.996094 43.886719 172.59375 50.488281 180.710938 50.488281 C 188.824219 50.488281 195.425781 43.886719 195.425781 35.773438 C 195.425781 27.660156 188.824219 21.058594 180.710938 21.058594 Z M 180.710938 55.535156 C 175.429688 55.535156 170.46875 53.476562 166.738281 49.746094 C 163.003906 46.015625 160.949219 41.050781 160.949219 35.773438 C 160.949219 30.496094 163.003906 25.535156 166.738281 21.800781 C 170.46875 18.070312 175.429688 16.015625 180.710938 16.015625 C 185.988281 16.015625 190.949219 18.070312 194.679688 21.800781 C 198.414062 25.535156 200.46875 30.496094 200.46875 35.773438 C 200.46875 41.050781 198.414062 46.015625 194.679688 49.746094 C 190.949219 53.476562 185.988281 55.535156 180.710938 55.535156 " fill-opacity="1" fill-rule="nonzero"/></g><path fill="#ffffff" d="M 224.308594 38.882812 C 216.195312 38.882812 209.59375 45.488281 209.59375 53.601562 C 209.59375 61.714844 216.195312 68.316406 224.308594 68.316406 C 232.421875 68.316406 239.023438 61.714844 239.023438 53.601562 C 239.023438 45.488281 232.421875 38.882812 224.308594 38.882812 Z M 224.308594 73.359375 C 219.03125 73.359375 214.066406 71.304688 210.335938 67.574219 C 206.601562 63.839844 204.546875 58.878906 204.546875 53.601562 C 204.546875 48.320312 206.601562 43.359375 210.335938 39.628906 C 214.066406 35.894531 219.03125 33.839844 224.308594 33.839844 C 229.585938 33.839844 234.546875 35.894531 238.28125 39.628906 C 242.011719 43.359375 244.066406 48.320312 244.066406 53.601562 C 244.066406 58.878906 242.011719 63.839844 238.28125 67.574219 C 234.546875 71.304688 229.585938 73.359375 224.308594 73.359375 " fill-opacity="1" fill-rule="nonzero"/><path fill="#ffffff" d="M 137.113281 38.882812 C 128.996094 38.882812 122.398438 45.488281 122.398438 53.601562 C 122.398438 61.714844 128.996094 68.316406 137.113281 68.316406 C 145.226562 68.316406 151.824219 61.714844 151.824219 53.601562 C 151.824219 45.488281 145.226562 38.882812 137.113281 38.882812 Z M 137.113281 73.359375 C 131.832031 73.359375 126.871094 71.304688 123.140625 67.574219 C 119.40625 63.839844 117.351562 58.878906 117.351562 53.601562 C 117.351562 48.320312 119.40625 43.359375 123.140625 39.628906 C 126.871094 35.894531 131.832031 33.839844 137.113281 33.839844 C 142.390625 33.839844 147.351562 35.894531 151.082031 39.628906 C 154.816406 43.359375 156.871094 48.320312 156.871094 53.601562 C 156.871094 58.878906 154.816406 63.839844 151.082031 67.574219 C 147.351562 71.304688 142.390625 73.359375 137.113281 73.359375 " fill-opacity="1" fill-rule="nonzero"/><g fill="#ffffff" fill-opacity="1"><g transform="translate(20.481127, 199.383582)"><g><path d="M 17.765625 -26.921875 L 17.765625 0 L 11.015625 0 L 11.015625 -26.921875 L 0.84375 -26.921875 L 0.84375 -33.09375 L 27.953125 -33.09375 L 27.953125 -26.921875 Z M 17.765625 -26.921875 "/></g></g></g><g fill="#ffffff" fill-opacity="1"><g transform="translate(49.268611, 199.383582)"><g><path d="M 0.640625 0 L 11.59375 -33.09375 L 20.375 -33.09375 L 31.34375 0 L 24.4375 0 L 22.234375 -6.71875 L 9.5 -6.71875 L 7.34375 0 Z M 11.40625 -12.625 L 20.328125 -12.625 L 15.875 -26.296875 Z M 11.40625 -12.625 "/></g></g></g><g fill="#ffffff" fill-opacity="1"><g transform="translate(81.236108, 199.383582)"><g><path d="M 29.765625 0 L 29.765625 -22.234375 L 21.828125 -8.421875 L 17.9375 -8.421875 L 10.09375 -22.234375 L 10.09375 0 L 3.59375 0 L 3.59375 -33.09375 L 11.359375 -33.09375 L 19.984375 -17.390625 L 28.6875 -33.09375 L 36.296875 -33.09375 L 36.296875 0 Z M 29.765625 0 "/></g></g></g><g fill="#ffffff" fill-opacity="1"><g transform="translate(121.093863, 199.383582)"><g><path d="M 30.796875 -13.8125 C 30.796875 -8.632812 29.742188 -4.914062 27.640625 -2.65625 C 25.535156 -0.394531 22.050781 0.734375 17.1875 0.734375 C 12.375 0.734375 8.90625 -0.382812 6.78125 -2.625 C 4.65625 -4.863281 3.59375 -8.59375 3.59375 -13.8125 L 3.59375 -33.09375 L 10.328125 -33.09375 L 10.328125 -14.296875 C 10.328125 -12.046875 10.539062 -10.273438 10.96875 -8.984375 C 11.40625 -7.691406 12.09375 -6.742188 13.03125 -6.140625 C 13.96875 -5.535156 15.335938 -5.234375 17.140625 -5.234375 C 19.710938 -5.234375 21.503906 -5.914062 22.515625 -7.28125 C 23.535156 -8.644531 24.046875 -10.953125 24.046875 -14.203125 L 24.046875 -33.09375 L 30.796875 -33.09375 Z M 30.796875 -13.8125 "/></g></g></g><g fill="#ffffff" fill-opacity="1"><g transform="translate(155.476257, 199.383582)"><g/></g></g><g fill="#ffffff" fill-opacity="1"><g transform="translate(167.239913, 199.383582)"><g><path d="M 27.375 -9.59375 C 27.375 -6.269531 26.285156 -3.722656 24.109375 -1.953125 C 21.929688 -0.191406 18.722656 0.6875 14.484375 0.6875 C 11.554688 0.6875 9.007812 0.203125 6.84375 -0.765625 C 4.6875 -1.734375 2.929688 -3.300781 1.578125 -5.46875 L 6.765625 -9.4375 C 7.535156 -8.351562 8.257812 -7.539062 8.9375 -7 C 9.625 -6.457031 10.4375 -6.035156 11.375 -5.734375 C 12.320312 -5.429688 13.410156 -5.28125 14.640625 -5.28125 C 16.472656 -5.28125 17.898438 -5.59375 18.921875 -6.21875 C 19.953125 -6.851562 20.46875 -7.816406 20.46875 -9.109375 C 20.46875 -9.835938 20.285156 -10.445312 19.921875 -10.9375 C 19.566406 -11.4375 19.03125 -11.863281 18.3125 -12.21875 C 17.59375 -12.582031 16.347656 -13 14.578125 -13.46875 C 12.859375 -13.925781 11.238281 -14.390625 9.71875 -14.859375 C 8.195312 -15.328125 6.878906 -15.9375 5.765625 -16.6875 C 4.660156 -17.4375 3.789062 -18.375 3.15625 -19.5 C 2.519531 -20.632812 2.203125 -22.066406 2.203125 -23.796875 C 2.203125 -26.929688 3.257812 -29.378906 5.375 -31.140625 C 7.5 -32.898438 10.535156 -33.78125 14.484375 -33.78125 C 20.210938 -33.78125 24.265625 -31.820312 26.640625 -27.90625 L 21.5 -23.890625 C 20.582031 -25.285156 19.554688 -26.285156 18.421875 -26.890625 C 17.296875 -27.503906 15.953125 -27.8125 14.390625 -27.8125 C 12.828125 -27.8125 11.554688 -27.523438 10.578125 -26.953125 C 9.597656 -26.390625 9.109375 -25.503906 9.109375 -24.296875 C 9.109375 -23.222656 9.617188 -22.40625 10.640625 -21.84375 C 11.660156 -21.28125 13.4375 -20.707031 15.96875 -20.125 C 17.375 -19.757812 18.757812 -19.363281 20.125 -18.9375 C 21.5 -18.519531 22.722656 -17.9375 23.796875 -17.1875 C 24.878906 -16.4375 25.742188 -15.457031 26.390625 -14.25 C 27.046875 -13.039062 27.375 -11.488281 27.375 -9.59375 Z M 27.375 -9.59375 "/></g></g></g><g fill="#ffffff" fill-opacity="1"><g transform="translate(196.625144, 199.383582)"><g><path d="M 17.765625 -26.921875 L 17.765625 0 L 11.015625 0 L 11.015625 -26.921875 L 0.84375 -26.921875 L 0.84375 -33.09375 L 27.953125 -33.09375 L 27.953125 -26.921875 Z M 17.765625 -26.921875 "/></g></g></g><g fill="#ffffff" fill-opacity="1"><g transform="translate(225.412627, 199.383582)"><g><path d="M 30.796875 -13.8125 C 30.796875 -8.632812 29.742188 -4.914062 27.640625 -2.65625 C 25.535156 -0.394531 22.050781 0.734375 17.1875 0.734375 C 12.375 0.734375 8.90625 -0.382812 6.78125 -2.625 C 4.65625 -4.863281 3.59375 -8.59375 3.59375 -13.8125 L 3.59375 -33.09375 L 10.328125 -33.09375 L 10.328125 -14.296875 C 10.328125 -12.046875 10.539062 -10.273438 10.96875 -8.984375 C 11.40625 -7.691406 12.09375 -6.742188 13.03125 -6.140625 C 13.96875 -5.535156 15.335938 -5.234375 17.140625 -5.234375 C 19.710938 -5.234375 21.503906 -5.914062 22.515625 -7.28125 C 23.535156 -8.644531 24.046875 -10.953125 24.046875 -14.203125 L 24.046875 -33.09375 L 30.796875 -33.09375 Z M 30.796875 -13.8125 "/></g></g></g><g fill="#ffffff" fill-opacity="1"><g transform="translate(259.795021, 199.383582)"><g><path d="M 29.34375 -16.546875 C 29.34375 -12.554688 28.789062 -9.347656 27.6875 -6.921875 C 26.582031 -4.503906 24.921875 -2.742188 22.703125 -1.640625 C 20.492188 -0.546875 17.378906 0 13.359375 0 L 3.28125 0 L 3.28125 -33.09375 L 13.265625 -33.09375 C 17.171875 -33.09375 20.273438 -32.523438 22.578125 -31.390625 C 24.878906 -30.265625 26.582031 -28.5 27.6875 -26.09375 C 28.789062 -23.695312 29.34375 -20.515625 29.34375 -16.546875 Z M 22.375 -16.59375 C 22.375 -19.476562 22.09375 -21.617188 21.53125 -23.015625 C 20.96875 -24.410156 20.007812 -25.410156 18.65625 -26.015625 C 17.300781 -26.617188 15.289062 -26.921875 12.625 -26.921875 L 10.046875 -26.921875 L 10.046875 -6.171875 L 12.625 -6.171875 C 15.289062 -6.171875 17.296875 -6.476562 18.640625 -7.09375 C 19.984375 -7.707031 20.941406 -8.726562 21.515625 -10.15625 C 22.085938 -11.59375 22.375 -13.738281 22.375 -16.59375 Z M 22.375 -16.59375 "/></g></g></g><g fill="#ffffff" fill-opacity="1"><g transform="translate(291.188682, 199.383582)"><g><path d="M 30.5625 -16.546875 C 30.5625 -10.796875 29.34375 -6.484375 26.90625 -3.609375 C 24.476562 -0.742188 20.945312 0.6875 16.3125 0.6875 C 11.414062 0.6875 7.816406 -0.820312 5.515625 -3.84375 C 3.210938 -6.863281 2.0625 -11.097656 2.0625 -16.546875 C 2.0625 -22.023438 3.210938 -26.265625 5.515625 -29.265625 C 7.816406 -32.273438 11.414062 -33.78125 16.3125 -33.78125 C 21.238281 -33.78125 24.84375 -32.273438 27.125 -29.265625 C 29.414062 -26.265625 30.5625 -22.023438 30.5625 -16.546875 Z M 23.59375 -16.546875 C 23.59375 -20.460938 23.039062 -23.316406 21.9375 -25.109375 C 20.832031 -26.910156 18.957031 -27.8125 16.3125 -27.8125 C 13.664062 -27.8125 11.785156 -26.910156 10.671875 -25.109375 C 9.566406 -23.316406 9.015625 -20.460938 9.015625 -16.546875 C 9.015625 -12.628906 9.578125 -9.769531 10.703125 -7.96875 C 11.828125 -6.175781 13.695312 -5.28125 16.3125 -5.28125 C 18.957031 -5.28125 20.832031 -6.175781 21.9375 -7.96875 C 23.039062 -9.769531 23.59375 -12.628906 23.59375 -16.546875 Z M 23.59375 -16.546875 "/></g></g></g><g fill="#ffffff" fill-opacity="1"><g transform="translate(323.801745, 199.383582)"><g><path d="M 22.1875 0 L 13.75 -12.53125 L 10.328125 -12.53125 L 10.328125 0 L 3.59375 0 L 3.59375 -33.09375 L 15.609375 -33.09375 C 19.867188 -33.09375 22.984375 -32.328125 24.953125 -30.796875 C 26.921875 -29.265625 27.90625 -26.753906 27.90625 -23.265625 C 27.90625 -20.441406 27.3125 -18.191406 26.125 -16.515625 C 24.9375 -14.847656 23.25 -13.78125 21.0625 -13.3125 L 29.90625 0 Z M 21.0625 -22.984375 C 21.0625 -24.671875 20.632812 -25.800781 19.78125 -26.375 C 18.925781 -26.945312 17.519531 -27.234375 15.5625 -27.234375 L 10.328125 -27.234375 L 10.328125 -18.40625 L 15.28125 -18.40625 C 16.789062 -18.40625 17.953125 -18.546875 18.765625 -18.828125 C 19.578125 -19.117188 20.160156 -19.566406 20.515625 -20.171875 C 20.878906 -20.785156 21.0625 -21.722656 21.0625 -22.984375 Z M 21.0625 -22.984375 "/></g></g></g></svg>