<svg xmlns="http://www.w3.org/2000/svg" xmlns:xlink="http://www.w3.org/1999/xlink" width="500" zoomAndPan="magnify" viewBox="0 0 375 225" height="300" preserveAspectRatio="xMidYMid meet" version="1.0"><defs><g/><clipPath id="96fa079a37"><path d="M 103.789062 63.183594 L 257.417969 63.183594 L 257.417969 151.015625 L 103.789062 151.015625 Z M 103.789062 63.183594 " clip-rule="nonzero"/></clipPath><clipPath id="9a983f1c85"><path d="M 160 16.015625 L 201 16.015625 L 201 56 L 160 56 Z M 160 16.015625 " clip-rule="nonzero"/></clipPath></defs><g clip-path="url(#96fa079a37)"><path fill="#000000" d="M 153.046875 87.203125 C 153.003906 87.757812 152.980469 88.316406 152.980469 88.882812 L 152.980469 125.988281 C 152.980469 130.375 156.546875 133.945312 160.933594 133.945312 C 165.316406 133.945312 168.882812 130.375 168.882812 125.988281 L 168.882812 104.09375 C 168.882812 95.125 161.875 87.761719 153.046875 87.203125 Z M 208.160156 87.203125 C 199.332031 87.761719 192.324219 95.125 192.324219 104.09375 L 192.324219 125.988281 C 192.324219 130.375 195.890625 133.945312 200.277344 133.945312 C 204.660156 133.945312 208.226562 130.375 208.226562 125.988281 L 208.226562 88.882812 C 208.226562 88.316406 208.203125 87.757812 208.160156 87.203125 Z M 254.898438 151.015625 C 253.507812 151.015625 252.378906 149.886719 252.378906 148.496094 L 252.378906 104.09375 C 252.378906 94.761719 244.792969 87.171875 235.464844 87.171875 L 213.210938 87.171875 C 213.246094 87.738281 213.265625 88.308594 213.265625 88.882812 L 213.265625 125.988281 C 213.265625 133.15625 207.4375 138.988281 200.277344 138.988281 C 193.113281 138.988281 187.285156 133.15625 187.285156 125.988281 L 187.285156 104.09375 C 187.285156 98.226562 189.566406 92.710938 193.714844 88.5625 C 197.359375 84.914062 202.058594 82.707031 207.128906 82.226562 C 204.355469 74.105469 196.652344 68.25 187.609375 68.25 L 173.597656 68.25 C 164.554688 68.25 156.851562 74.105469 154.078125 82.226562 C 159.148438 82.707031 163.847656 84.914062 167.492188 88.5625 C 171.640625 92.710938 173.921875 98.226562 173.921875 104.09375 L 173.921875 125.988281 C 173.921875 133.15625 168.09375 138.988281 160.933594 138.988281 C 153.769531 138.988281 147.941406 133.15625 147.941406 125.988281 L 147.941406 88.882812 C 147.941406 88.308594 147.960938 87.738281 147.996094 87.171875 L 125.742188 87.171875 C 116.414062 87.171875 108.828125 94.761719 108.828125 104.09375 L 108.828125 148.496094 C 108.828125 149.886719 107.699219 151.015625 106.308594 151.015625 C 104.917969 151.015625 103.789062 149.886719 103.789062 148.496094 L 103.789062 104.09375 C 103.789062 98.226562 106.074219 92.710938 110.21875 88.5625 C 114.367188 84.414062 119.878906 82.128906 125.742188 82.128906 L 148.832031 82.128906 C 149.988281 77.855469 152.246094 73.941406 155.457031 70.726562 C 160.300781 65.878906 166.746094 63.207031 173.597656 63.207031 L 187.609375 63.207031 C 194.464844 63.207031 200.90625 65.878906 205.75 70.726562 C 208.964844 73.941406 211.21875 77.855469 212.375 82.128906 L 235.464844 82.128906 C 241.328125 82.128906 246.84375 84.414062 250.988281 88.5625 C 255.132812 92.710938 257.417969 98.226562 257.417969 104.09375 L 257.417969 148.496094 C 257.417969 149.886719 256.289062 151.015625 254.898438 151.015625 " fill-opacity="1" fill-rule="nonzero"/></g><g clip-path="url(#9a983f1c85)"><path fill="#000000" d="M 180.605469 21.054688 C 172.5 21.054688 165.910156 27.652344 165.910156 35.761719 C 165.910156 43.867188 172.5 50.464844 180.605469 50.464844 C 188.707031 50.464844 195.296875 43.867188 195.296875 35.761719 C 195.296875 27.652344 188.707031 21.054688 180.605469 21.054688 Z M 180.605469 55.507812 C 175.332031 55.507812 170.378906 53.453125 166.652344 49.722656 C 162.921875 45.992188 160.871094 41.035156 160.871094 35.761719 C 160.871094 30.484375 162.921875 25.527344 166.652344 21.796875 C 170.378906 18.066406 175.332031 16.015625 180.605469 16.015625 C 185.875 16.015625 190.828125 18.066406 194.558594 21.796875 C 198.285156 25.527344 200.335938 30.484375 200.335938 35.761719 C 200.335938 41.035156 198.285156 45.992188 194.558594 49.722656 C 190.828125 53.453125 185.875 55.507812 180.605469 55.507812 " fill-opacity="1" fill-rule="nonzero"/></g><path fill="#000000" d="M 224.140625 38.867188 C 216.039062 38.867188 209.445312 45.464844 209.445312 53.574219 C 209.445312 61.683594 216.039062 68.277344 224.140625 68.277344 C 232.246094 68.277344 238.835938 61.683594 238.835938 53.574219 C 238.835938 45.464844 232.246094 38.867188 224.140625 38.867188 Z M 224.140625 73.320312 C 218.871094 73.320312 213.917969 71.265625 210.1875 67.535156 C 206.460938 63.808594 204.410156 58.847656 204.410156 53.574219 C 204.410156 48.300781 206.460938 43.339844 210.1875 39.609375 C 213.917969 35.882812 218.871094 33.828125 224.140625 33.828125 C 229.414062 33.828125 234.367188 35.882812 238.097656 39.609375 C 241.820312 43.339844 243.875 48.300781 243.875 53.574219 C 243.875 58.847656 241.820312 63.808594 238.097656 67.535156 C 234.367188 71.265625 229.414062 73.320312 224.140625 73.320312 " fill-opacity="1" fill-rule="nonzero"/><path fill="#000000" d="M 137.066406 38.867188 C 128.964844 38.867188 122.371094 45.464844 122.371094 53.574219 C 122.371094 61.683594 128.964844 68.277344 137.066406 68.277344 C 145.167969 68.277344 151.761719 61.683594 151.761719 53.574219 C 151.761719 45.464844 145.167969 38.867188 137.066406 38.867188 Z M 137.066406 73.320312 C 131.792969 73.320312 126.839844 71.265625 123.113281 67.535156 C 119.386719 63.808594 117.332031 58.847656 117.332031 53.574219 C 117.332031 48.300781 119.386719 43.339844 123.113281 39.609375 C 126.839844 35.882812 131.792969 33.828125 137.066406 33.828125 C 142.335938 33.828125 147.292969 35.882812 151.019531 39.609375 C 154.746094 43.339844 156.796875 48.300781 156.796875 53.574219 C 156.796875 58.847656 154.746094 63.808594 151.019531 67.535156 C 147.292969 71.265625 142.335938 73.320312 137.066406 73.320312 " fill-opacity="1" fill-rule="nonzero"/><g fill="#000000" fill-opacity="1"><g transform="translate(20.481127, 199.383582)"><g><path d="M 17.765625 -26.921875 L 17.765625 0 L 11.015625 0 L 11.015625 -26.921875 L 0.84375 -26.921875 L 0.84375 -33.09375 L 27.953125 -33.09375 L 27.953125 -26.921875 Z M 17.765625 -26.921875 "/></g></g></g><g fill="#000000" fill-opacity="1"><g transform="translate(49.268611, 199.383582)"><g><path d="M 0.640625 0 L 11.59375 -33.09375 L 20.375 -33.09375 L 31.34375 0 L 24.4375 0 L 22.234375 -6.71875 L 9.5 -6.71875 L 7.34375 0 Z M 11.40625 -12.625 L 20.328125 -12.625 L 15.875 -26.296875 Z M 11.40625 -12.625 "/></g></g></g><g fill="#000000" fill-opacity="1"><g transform="translate(81.236108, 199.383582)"><g><path d="M 29.765625 0 L 29.765625 -22.234375 L 21.828125 -8.421875 L 17.9375 -8.421875 L 10.09375 -22.234375 L 10.09375 0 L 3.59375 0 L 3.59375 -33.09375 L 11.359375 -33.09375 L 19.984375 -17.390625 L 28.6875 -33.09375 L 36.296875 -33.09375 L 36.296875 0 Z M 29.765625 0 "/></g></g></g><g fill="#000000" fill-opacity="1"><g transform="translate(121.093863, 199.383582)"><g><path d="M 30.796875 -13.8125 C 30.796875 -8.632812 29.742188 -4.914062 27.640625 -2.65625 C 25.535156 -0.394531 22.050781 0.734375 17.1875 0.734375 C 12.375 0.734375 8.90625 -0.382812 6.78125 -2.625 C 4.65625 -4.863281 3.59375 -8.59375 3.59375 -13.8125 L 3.59375 -33.09375 L 10.328125 -33.09375 L 10.328125 -14.296875 C 10.328125 -12.046875 10.539062 -10.273438 10.96875 -8.984375 C 11.40625 -7.691406 12.09375 -6.742188 13.03125 -6.140625 C 13.96875 -5.535156 15.335938 -5.234375 17.140625 -5.234375 C 19.710938 -5.234375 21.503906 -5.914062 22.515625 -7.28125 C 23.535156 -8.644531 24.046875 -10.953125 24.046875 -14.203125 L 24.046875 -33.09375 L 30.796875 -33.09375 Z M 30.796875 -13.8125 "/></g></g></g><g fill="#000000" fill-opacity="1"><g transform="translate(155.476257, 199.383582)"><g/></g></g><g fill="#000000" fill-opacity="1"><g transform="translate(167.239913, 199.383582)"><g><path d="M 27.375 -9.59375 C 27.375 -6.269531 26.285156 -3.722656 24.109375 -1.953125 C 21.929688 -0.191406 18.722656 0.6875 14.484375 0.6875 C 11.554688 0.6875 9.007812 0.203125 6.84375 -0.765625 C 4.6875 -1.734375 2.929688 -3.300781 1.578125 -5.46875 L 6.765625 -9.4375 C 7.535156 -8.351562 8.257812 -7.539062 8.9375 -7 C 9.625 -6.457031 10.4375 -6.035156 11.375 -5.734375 C 12.320312 -5.429688 13.410156 -5.28125 14.640625 -5.28125 C 16.472656 -5.28125 17.898438 -5.59375 18.921875 -6.21875 C 19.953125 -6.851562 20.46875 -7.816406 20.46875 -9.109375 C 20.46875 -9.835938 20.285156 -10.445312 19.921875 -10.9375 C 19.566406 -11.4375 19.03125 -11.863281 18.3125 -12.21875 C 17.59375 -12.582031 16.347656 -13 14.578125 -13.46875 C 12.859375 -13.925781 11.238281 -14.390625 9.71875 -14.859375 C 8.195312 -15.328125 6.878906 -15.9375 5.765625 -16.6875 C 4.660156 -17.4375 3.789062 -18.375 3.15625 -19.5 C 2.519531 -20.632812 2.203125 -22.066406 2.203125 -23.796875 C 2.203125 -26.929688 3.257812 -29.378906 5.375 -31.140625 C 7.5 -32.898438 10.535156 -33.78125 14.484375 -33.78125 C 20.210938 -33.78125 24.265625 -31.820312 26.640625 -27.90625 L 21.5 -23.890625 C 20.582031 -25.285156 19.554688 -26.285156 18.421875 -26.890625 C 17.296875 -27.503906 15.953125 -27.8125 14.390625 -27.8125 C 12.828125 -27.8125 11.554688 -27.523438 10.578125 -26.953125 C 9.597656 -26.390625 9.109375 -25.503906 9.109375 -24.296875 C 9.109375 -23.222656 9.617188 -22.40625 10.640625 -21.84375 C 11.660156 -21.28125 13.4375 -20.707031 15.96875 -20.125 C 17.375 -19.757812 18.757812 -19.363281 20.125 -18.9375 C 21.5 -18.519531 22.722656 -17.9375 23.796875 -17.1875 C 24.878906 -16.4375 25.742188 -15.457031 26.390625 -14.25 C 27.046875 -13.039062 27.375 -11.488281 27.375 -9.59375 Z M 27.375 -9.59375 "/></g></g></g><g fill="#000000" fill-opacity="1"><g transform="translate(196.625144, 199.383582)"><g><path d="M 17.765625 -26.921875 L 17.765625 0 L 11.015625 0 L 11.015625 -26.921875 L 0.84375 -26.921875 L 0.84375 -33.09375 L 27.953125 -33.09375 L 27.953125 -26.921875 Z M 17.765625 -26.921875 "/></g></g></g><g fill="#000000" fill-opacity="1"><g transform="translate(225.412627, 199.383582)"><g><path d="M 30.796875 -13.8125 C 30.796875 -8.632812 29.742188 -4.914062 27.640625 -2.65625 C 25.535156 -0.394531 22.050781 0.734375 17.1875 0.734375 C 12.375 0.734375 8.90625 -0.382812 6.78125 -2.625 C 4.65625 -4.863281 3.59375 -8.59375 3.59375 -13.8125 L 3.59375 -33.09375 L 10.328125 -33.09375 L 10.328125 -14.296875 C 10.328125 -12.046875 10.539062 -10.273438 10.96875 -8.984375 C 11.40625 -7.691406 12.09375 -6.742188 13.03125 -6.140625 C 13.96875 -5.535156 15.335938 -5.234375 17.140625 -5.234375 C 19.710938 -5.234375 21.503906 -5.914062 22.515625 -7.28125 C 23.535156 -8.644531 24.046875 -10.953125 24.046875 -14.203125 L 24.046875 -33.09375 L 30.796875 -33.09375 Z M 30.796875 -13.8125 "/></g></g></g><g fill="#000000" fill-opacity="1"><g transform="translate(259.795021, 199.383582)"><g><path d="M 29.34375 -16.546875 C 29.34375 -12.554688 28.789062 -9.347656 27.6875 -6.921875 C 26.582031 -4.503906 24.921875 -2.742188 22.703125 -1.640625 C 20.492188 -0.546875 17.378906 0 13.359375 0 L 3.28125 0 L 3.28125 -33.09375 L 13.265625 -33.09375 C 17.171875 -33.09375 20.273438 -32.523438 22.578125 -31.390625 C 24.878906 -30.265625 26.582031 -28.5 27.6875 -26.09375 C 28.789062 -23.695312 29.34375 -20.515625 29.34375 -16.546875 Z M 22.375 -16.59375 C 22.375 -19.476562 22.09375 -21.617188 21.53125 -23.015625 C 20.96875 -24.410156 20.007812 -25.410156 18.65625 -26.015625 C 17.300781 -26.617188 15.289062 -26.921875 12.625 -26.921875 L 10.046875 -26.921875 L 10.046875 -6.171875 L 12.625 -6.171875 C 15.289062 -6.171875 17.296875 -6.476562 18.640625 -7.09375 C 19.984375 -7.707031 20.941406 -8.726562 21.515625 -10.15625 C 22.085938 -11.59375 22.375 -13.738281 22.375 -16.59375 Z M 22.375 -16.59375 "/></g></g></g><g fill="#000000" fill-opacity="1"><g transform="translate(291.188682, 199.383582)"><g><path d="M 30.5625 -16.546875 C 30.5625 -10.796875 29.34375 -6.484375 26.90625 -3.609375 C 24.476562 -0.742188 20.945312 0.6875 16.3125 0.6875 C 11.414062 0.6875 7.816406 -0.820312 5.515625 -3.84375 C 3.210938 -6.863281 2.0625 -11.097656 2.0625 -16.546875 C 2.0625 -22.023438 3.210938 -26.265625 5.515625 -29.265625 C 7.816406 -32.273438 11.414062 -33.78125 16.3125 -33.78125 C 21.238281 -33.78125 24.84375 -32.273438 27.125 -29.265625 C 29.414062 -26.265625 30.5625 -22.023438 30.5625 -16.546875 Z M 23.59375 -16.546875 C 23.59375 -20.460938 23.039062 -23.316406 21.9375 -25.109375 C 20.832031 -26.910156 18.957031 -27.8125 16.3125 -27.8125 C 13.664062 -27.8125 11.785156 -26.910156 10.671875 -25.109375 C 9.566406 -23.316406 9.015625 -20.460938 9.015625 -16.546875 C 9.015625 -12.628906 9.578125 -9.769531 10.703125 -7.96875 C 11.828125 -6.175781 13.695312 -5.28125 16.3125 -5.28125 C 18.957031 -5.28125 20.832031 -6.175781 21.9375 -7.96875 C 23.039062 -9.769531 23.59375 -12.628906 23.59375 -16.546875 Z M 23.59375 -16.546875 "/></g></g></g><g fill="#000000" fill-opacity="1"><g transform="translate(323.801745, 199.383582)"><g><path d="M 22.1875 0 L 13.75 -12.53125 L 10.328125 -12.53125 L 10.328125 0 L 3.59375 0 L 3.59375 -33.09375 L 15.609375 -33.09375 C 19.867188 -33.09375 22.984375 -32.328125 24.953125 -30.796875 C 26.921875 -29.265625 27.90625 -26.753906 27.90625 -23.265625 C 27.90625 -20.441406 27.3125 -18.191406 26.125 -16.515625 C 24.9375 -14.847656 23.25 -13.78125 21.0625 -13.3125 L 29.90625 0 Z M 21.0625 -22.984375 C 21.0625 -24.671875 20.632812 -25.800781 19.78125 -26.375 C 18.925781 -26.945312 17.519531 -27.234375 15.5625 -27.234375 L 10.328125 -27.234375 L 10.328125 -18.40625 L 15.28125 -18.40625 C 16.789062 -18.40625 17.953125 -18.546875 18.765625 -18.828125 C 19.578125 -19.117188 20.160156 -19.566406 20.515625 -20.171875 C 20.878906 -20.785156 21.0625 -21.722656 21.0625 -22.984375 Z M 21.0625 -22.984375 "/></g></g></g></svg>